<svg id="visual" viewBox="0 0 900 600" width="900" height="600" xmlns="http://www.w3.org/2000/svg" xmlns:xlink="http://www.w3.org/1999/xlink" version="1.1"><path d="M0 181L13.7 175C27.3 169 54.7 157 82 143C109.3 129 136.7 113 163.8 108C191 103 218 109 245.2 111C272.3 113 299.7 111 327 113C354.3 115 381.7 121 409 121C436.3 121 463.7 115 491 115C518.3 115 545.7 121 573 114C600.3 107 627.7 87 654.8 84C682 81 709 95 736.2 105C763.3 115 790.7 121 818 126C845.3 131 872.7 135 886.3 137L900 139L900 0L886.3 0C872.7 0 845.3 0 818 0C790.7 0 763.3 0 736.2 0C709 0 682 0 654.8 0C627.7 0 600.3 0 573 0C545.7 0 518.3 0 491 0C463.7 0 436.3 0 409 0C381.7 0 354.3 0 327 0C299.7 0 272.3 0 245.2 0C218 0 191 0 163.8 0C136.7 0 109.3 0 82 0C54.7 0 27.3 0 13.7 0L0 0Z" fill="#003664"></path><path d="M0 235L13.7 240C27.3 245 54.7 255 82 251C109.3 247 136.7 229 163.8 218C191 207 218 203 245.2 205C272.3 207 299.7 215 327 212C354.3 209 381.7 195 409 196C436.3 197 463.7 213 491 213C518.3 213 545.7 197 573 188C600.3 179 627.7 177 654.8 179C682 181 709 187 736.2 192C763.3 197 790.7 201 818 209C845.3 217 872.7 229 886.3 235L900 241L900 137L886.3 135C872.7 133 845.3 129 818 124C790.7 119 763.3 113 736.2 103C709 93 682 79 654.8 82C627.7 85 600.3 105 573 112C545.7 119 518.3 113 491 113C463.7 113 436.3 119 409 119C381.7 119 354.3 113 327 111C299.7 109 272.3 111 245.2 109C218 107 191 101 163.8 106C136.7 111 109.3 127 82 141C54.7 155 27.3 167 13.7 173L0 179Z" fill="#002442"></path><path d="M0 271L13.7 277C27.3 283 54.7 295 82 298C109.3 301 136.7 295 163.8 285C191 275 218 261 245.2 256C272.3 251 299.7 255 327 258C354.3 261 381.7 263 409 270C436.3 277 463.7 289 491 283C518.3 277 545.7 253 573 247C600.3 241 627.7 253 654.8 259C682 265 709 265 736.2 264C763.3 263 790.7 261 818 273C845.3 285 872.7 311 886.3 324L900 337L900 239L886.3 233C872.7 227 845.3 215 818 207C790.7 199 763.3 195 736.2 190C709 185 682 179 654.8 177C627.7 175 600.3 177 573 186C545.7 195 518.3 211 491 211C463.7 211 436.3 195 409 194C381.7 193 354.3 207 327 210C299.7 213 272.3 205 245.2 203C218 201 191 205 163.8 216C136.7 227 109.3 245 82 249C54.7 253 27.3 243 13.7 238L0 233Z" fill="#001122"></path><path d="M0 463L13.7 455C27.3 447 54.7 431 82 439C109.3 447 136.7 479 163.8 483C191 487 218 463 245.2 438C272.3 413 299.7 387 327 381C354.3 375 381.7 389 409 394C436.3 399 463.7 395 491 381C518.3 367 545.7 343 573 363C600.3 383 627.7 447 654.8 460C682 473 709 435 736.2 422C763.3 409 790.7 421 818 426C845.3 431 872.7 429 886.3 428L900 427L900 335L886.3 322C872.7 309 845.3 283 818 271C790.7 259 763.3 261 736.2 262C709 263 682 263 654.8 257C627.7 251 600.3 239 573 245C545.7 251 518.3 275 491 281C463.7 287 436.3 275 409 268C381.7 261 354.3 259 327 256C299.7 253 272.3 249 245.2 254C218 259 191 273 163.8 283C136.7 293 109.3 299 82 296C54.7 293 27.3 281 13.7 275L0 269Z" fill="#000f1e"></path><path d="M0 601L13.7 601C27.3 601 54.7 601 82 601C109.3 601 136.7 601 163.8 601C191 601 218 601 245.2 601C272.3 601 299.7 601 327 601C354.3 601 381.7 601 409 601C436.3 601 463.7 601 491 601C518.3 601 545.7 601 573 601C600.3 601 627.7 601 654.8 601C682 601 709 601 736.2 601C763.3 601 790.7 601 818 601C845.3 601 872.7 601 886.3 601L900 601L900 425L886.3 426C872.7 427 845.3 429 818 424C790.7 419 763.3 407 736.2 420C709 433 682 471 654.8 458C627.7 445 600.3 381 573 361C545.7 341 518.3 365 491 379C463.7 393 436.3 397 409 392C381.7 387 354.3 373 327 379C299.7 385 272.3 411 245.2 436C218 461 191 485 163.8 481C136.7 477 109.3 445 82 437C54.7 429 27.3 445 13.7 453L0 461Z" fill="#000d1b"></path></svg>