<svg id="visual" viewBox="0 0 900 600" width="900" height="600" xmlns="http://www.w3.org/2000/svg" xmlns:xlink="http://www.w3.org/1999/xlink" version="1.1"><rect x="0" y="0" width="900" height="600" fill="#3a1f1a"></rect><path d="M0 193L12.5 199.2C25 205.3 50 217.7 75 218.8C100 220 125 210 150 226C175 242 200 284 225 289.8C250 295.7 275 265.3 300 254.7C325 244 350 253 375 252.2C400 251.3 425 240.7 450 235.8C475 231 500 232 525 242C550 252 575 271 600 274.5C625 278 650 266 675 268.7C700 271.3 725 288.7 750 303C775 317.3 800 328.7 825 329.5C850 330.3 875 320.7 887.5 315.8L900 311L900 601L887.5 601C875 601 850 601 825 601C800 601 775 601 750 601C725 601 700 601 675 601C650 601 625 601 600 601C575 601 550 601 525 601C500 601 475 601 450 601C425 601 400 601 375 601C350 601 325 601 300 601C275 601 250 601 225 601C200 601 175 601 150 601C125 601 100 601 75 601C50 601 25 601 12.5 601L0 601Z" fill="#8d4f4f"></path><path d="M0 425L12.5 418.8C25 412.7 50 400.3 75 380.7C100 361 125 334 150 321.7C175 309.3 200 311.7 225 312.2C250 312.7 275 311.3 300 329.7C325 348 350 386 375 391.5C400 397 425 370 450 351.7C475 333.3 500 323.7 525 325.5C550 327.3 575 340.7 600 359.5C625 378.3 650 402.7 675 394.2C700 385.7 725 344.3 750 333.3C775 322.3 800 341.7 825 340.5C850 339.3 875 317.7 887.5 306.8L900 296L900 601L887.5 601C875 601 850 601 825 601C800 601 775 601 750 601C725 601 700 601 675 601C650 601 625 601 600 601C575 601 550 601 525 601C500 601 475 601 450 601C425 601 400 601 375 601C350 601 325 601 300 601C275 601 250 601 225 601C200 601 175 601 150 601C125 601 100 601 75 601C50 601 25 601 12.5 601L0 601Z" fill="#a25e63"></path><path d="M0 505L12.5 506.8C25 508.7 50 512.3 75 511.7C100 511 125 506 150 492.3C175 478.7 200 456.3 225 454.8C250 453.3 275 472.7 300 474.7C325 476.7 350 461.3 375 448C400 434.7 425 423.3 450 423C475 422.7 500 433.3 525 444.2C550 455 575 466 600 474.8C625 483.7 650 490.3 675 480.8C700 471.3 725 445.7 750 436.5C775 427.3 800 434.7 825 441.3C850 448 875 454 887.5 457L900 460L900 601L887.5 601C875 601 850 601 825 601C800 601 775 601 750 601C725 601 700 601 675 601C650 601 625 601 600 601C575 601 550 601 525 601C500 601 475 601 450 601C425 601 400 601 375 601C350 601 325 601 300 601C275 601 250 601 225 601C200 601 175 601 150 601C125 601 100 601 75 601C50 601 25 601 12.5 601L0 601Z" fill="#b76e79"></path></svg>